<svg xmlns="http://www.w3.org/2000/svg" style="display:none">

  <!-- SEARCH -->
  <symbol id="i-search" viewBox="0 0 24 24">
    <path fill="currentColor" d="M10 2a8 8 0 105.29 14.03l4.34 4.34 1.41-1.41-4.34-4.34A8 8 0 0010 2zm0 2a6 6 0 110 12 6 6 0 010-12z"/>
  </symbol>

  <!-- WHATSAPP -->
  <symbol id="i-whatsapp" viewBox="0 0 24 24">
    <path fill="currentColor" d="M12.04 2C6.5 2 2 6.48 2 12.02c0 1.77.46 3.5 1.33 5.02L2 22l5.13-1.31a10 10 0 004.91 1.25c5.54 0 10.04-4.48 10.04-10.02C22.08 6.48 17.58 2 12.04 2zm0 18.1a8.1 8.1 0 01-4.14-1.13l-.3-.17-3.05.78.81-2.97-.2-.31A8.08 8.08 0 014 12.02C4 7.6 7.6 4 12.04 4c4.42 0 8.02 3.6 8.02 8.02 0 4.42-3.6 8.08-8.02 8.08z"/>
    <path fill="currentColor" d="M16.66 13.8c-.25-.12-1.48-.73-1.71-.82-.23-.08-.39-.12-.55.12-.16.25-.63.82-.77.99-.14.16-.28.18-.53.06-.25-.12-1.03-.38-1.96-1.2-.72-.64-1.2-1.42-1.34-1.67-.14-.25-.01-.39.11-.51.11-.11.25-.28.37-.42.12-.14.16-.25.25-.41.08-.16.04-.31-.02-.43-.06-.12-.55-1.32-.75-1.81-.2-.48-.41-.41-.55-.42h-.47c-.16 0-.41.06-.63.31-.22.25-.82.8-.82 1.95 0 1.15.84 2.26.96 2.42.12.16 1.65 2.52 4 3.53.56.24 1 .38 1.34.49.56.18 1.06.15 1.46.09.45-.07 1.48-.6 1.69-1.18.21-.58.21-1.08.15-1.18-.06-.1-.22-.16-.47-.28z"/>
  </symbol>

  <!-- CART -->
  <symbol id="i-cart" viewBox="0 0 24 24">
    <path fill="currentColor" d="M7 18a2 2 0 102 2 2 2 0 00-2-2zm10 0a2 2 0 102 2 2 2 0 00-2-2zM6.2 6l.3 2h12.9a1 1 0 01.97 1.24l-1.5 6A1 1 0 0118.9 16H7.1a1 1 0 01-.98-.8L4.2 4H2V2h3a1 1 0 01.98.8L6.2 6z"/>
  </symbol>

  <!-- TRUCK -->
  <symbol id="i-truck" viewBox="0 0 24 24">
    <path fill="currentColor" d="M3 4h12v11H3V4zm13 5h3l2 3v3h-5V9zm-9 9a2 2 0 102 2 2 2 0 00-2-2zm10 0a2 2 0 102 2 2 2 0 00-2-2z"/>
  </symbol>

  <!-- CREDIT CARD -->
  <symbol id="i-card" viewBox="0 0 24 24">
    <path fill="currentColor" d="M3 6a2 2 0 012-2h14a2 2 0 012 2v12a2 2 0 01-2 2H5a2 2 0 01-2-2V6zm2 2h14V6H5v2zm0 4h6v2H5v-2z"/>
  </symbol>

  <!-- BOX -->
  <symbol id="i-box" viewBox="0 0 24 24">
    <path fill="currentColor" d="M12 2l9 4.5V17.5L12 22 3 17.5V6.5L12 2zm0 2.2L5 7l7 3.3L19 7l-7-2.8zM5 9.2v7.1l6 2.8v-7.1L5 9.2zm8 9.9l6-2.8V9.2l-6 2.8v7.1z"/>
  </symbol>

  <!-- SUPPORT -->
  <symbol id="i-headset" viewBox="0 0 24 24">
    <path fill="currentColor" d="M12 3a8 8 0 00-8 8v6a3 3 0 003 3h2v-8H7v-1a5 5 0 0110 0v1h-2v8h2a3 3 0 003-3v-6a8 8 0 00-8-8z"/>
  </symbol>

  <!-- FIRE -->
  <symbol id="i-fire" viewBox="0 0 24 24">
    <path fill="currentColor" d="M13.5 2s.5 3-2 5.5S8.5 12 10 15c.7 1.4 2.1 2 3.5 2 2.5 0 4.5-2 4.5-5 0-3-2-4.5-2-10zM12 22a6 6 0 01-6-6c0-3.1 1.9-5.2 3.4-6.7.3 2.4 1.9 3.7 2.6 4.3 1.4 1.2 2 2.1 2 3.4A4 4 0 0112 22z"/>
  </symbol>

  <!-- INSTAGRAM -->
<symbol id="i-instagram" viewBox="0 0 24 24">
<path fill="currentColor" d="M7 2C4.2 2 2 4.2 2 7v10c0 2.8 2.2 5 5 5h10c2.8 0 5-2.2 5-5V7c0-2.8-2.2-5-5-5H7zm5 5.3A4.7 4.7 0 1112 16.7 4.7 4.7 0 0112 7.3zm0 2A2.7 2.7 0 1014.7 12 2.7 2.7 0 0012 9.3zm4.8-3.6a1.1 1.1 0 110 2.2 1.1 1.1 0 010-2.2z"/>
</symbol>

<!-- GOOGLE -->
<symbol id="i-google" viewBox="0 0 24 24">
<path fill="currentColor" d="M21.35 11.1h-9.18v2.92h5.28c-.23 1.48-1.76 4.35-5.28 4.35-3.18 0-5.77-2.63-5.77-5.87s2.59-5.87 5.77-5.87c1.81 0 3.03.77 3.73 1.43l2.54-2.46C17.05 3.99 14.79 3 12.17 3 6.9 3 2.73 7.18 2.73 12.5S6.9 22 12.17 22c5.63 0 9.35-3.95 9.35-9.5 0-.64-.07-1.12-.17-1.4z"/>
</symbol>

</svg>